# xmcd
#
# Track frame offsets: 
#        150
#        13870
#        33105
#        43625
#        52387
#        65537
#        79220
#        95657
#
# Disc length: 1418 seconds
#
# Revision: 3
# Processed by: cddbd v1.4PL0 Copyright (c) Steve Scherf et al.
# Submitted via: ExactAudioCopy v0.90b3
#
DISCID=6a058808
DTITLE=Elvis Presley - Elvis Country (RCA)
DYEAR=1900
DGENRE=Country
TTITLE0=Whole Lot-Ta Shakin' Goin' On
TTITLE1=Funny How Time Slips Away
TTITLE2=Baby Let's Play House
TTITLE3=Rip It Up
TTITLE4=Lovin' Arms
TTITLE5=You Asked Me To
TTITLE6=She Thinks I Still Care
TTITLE7=Paralyzed
EXTD=
EXTT0=
EXTT1=
EXTT2=
EXTT3=
EXTT4=
EXTT5=
EXTT6=
EXTT7=
PLAYORDER=
